<svg width="286" height="80" viewBox="0 0 286 80" fill="none" xmlns="http://www.w3.org/2000/svg">
<path d="M25.1129 22.0841C25.3326 21.9492 25.5604 21.8263 25.7881 21.7034C23.8944 15.6838 21.0938 10.0567 17.5461 4.98486C16.5993 5.48055 15.6724 6.01193 14.7695 6.57503C18.3811 11.6945 21.1897 17.4127 23.0075 23.5434C23.6787 23.016 24.3818 22.5282 25.1129 22.0841Z" fill="#272A44"/>
<path d="M25.045 57.8722C24.3378 57.44 23.6587 56.9641 23.0075 56.4565C21.1897 62.5912 18.3811 68.3094 14.7695 73.4289C15.6724 73.9959 16.5953 74.5273 17.5461 75.019C21.0938 69.9432 23.8984 64.3201 25.7881 58.2965C25.5364 58.1577 25.2887 58.0189 25.045 57.8722Z" fill="#272A44"/>
<path d="M19.0513 27.5867C19.291 27.2616 19.5427 26.9483 19.8023 26.639C18.1524 20.1594 15.3278 14.1358 11.5684 8.80615C10.7254 9.46046 9.90642 10.1465 9.11938 10.8642C13.1225 16.6102 15.979 23.2009 17.3493 30.311C17.8487 29.3593 18.412 28.4433 19.0513 27.5867Z" fill="#272A44"/>
<path d="M19.0092 52.3435C18.3899 51.5028 17.8426 50.6105 17.3552 49.6826C15.9809 56.7927 13.1284 63.3834 9.12524 69.1294C9.91228 69.8472 10.7313 70.5332 11.5743 71.1875C15.3337 65.8579 18.1582 59.8343 19.8082 53.3507C19.5325 53.0216 19.2649 52.6845 19.0092 52.3395V52.3435Z" fill="#272A44"/>
<path d="M6.32365 13.6851C5.58055 14.5099 4.86942 15.3664 4.19824 16.2547C8.60886 23.1229 11.1697 31.2681 11.1697 40.0001C11.1697 48.7321 8.60886 56.8772 4.19824 63.7454C4.86942 64.6337 5.58055 65.4903 6.32365 66.3151C11.4014 58.7806 14.3658 49.7274 14.3658 40.0001C14.3658 30.2727 11.4014 21.2235 6.32365 13.6851Z" fill="#272A44"/>
<path d="M1.7978 19.8101C1.1466 20.8966 0.547332 22.0149 0 23.1649C2.59283 28.2248 4.05904 33.9431 4.05904 39.9984C4.05904 46.0537 2.59283 51.7719 0 56.8319C0.547332 57.9819 1.1466 59.1002 1.7978 60.1867C5.26557 54.2424 7.25514 47.3464 7.25514 39.9984C7.25514 32.6503 5.26557 25.7543 1.7978 19.8101Z" fill="#272A44"/>
<path d="M57.0405 42.15C59.0061 41.7852 61.0317 41.5869 63.1011 41.5869C61.0676 41.5869 59.074 41.4164 57.1284 41.0952C57.1284 41.1071 57.1284 41.123 57.1284 41.1349C57.1084 41.4759 57.0765 41.813 57.0405 42.15Z" fill="#272A44"/>
<path d="M33.1162 60.733C32.9124 60.7053 32.7087 60.6775 32.5089 60.6418C31.626 60.4951 30.763 60.2889 29.9201 60.0391C28.0024 64.413 26.9397 69.235 26.9397 74.3029C26.9397 75.7424 27.0276 77.1581 27.1954 78.5539C28.2821 78.7998 29.3847 78.9981 30.4993 79.1527C30.2596 77.5705 30.1358 75.9526 30.1358 74.3029C30.1358 69.465 31.2065 64.869 33.1162 60.733Z" fill="#272A44"/>
<path d="M56.2378 46.0878C56.1938 46.2306 56.1539 46.3733 56.1099 46.5121C55.9861 46.8809 55.8543 47.2458 55.7144 47.6106C55.4148 48.3759 55.0672 49.1214 54.6797 49.8392C57.3205 48.939 60.153 48.4473 63.0974 48.4473H74.9709C75.1986 47.4044 75.3864 46.3456 75.5302 45.2749H63.0934C60.7323 45.2749 58.4351 45.5604 56.2338 46.0878H56.2378Z" fill="#272A44"/>
<path d="M41.2057 60.3149C39.9033 60.6401 38.5489 60.8344 37.1626 60.9058C35.0492 64.9189 33.8467 69.4752 33.8467 74.3052C33.8467 76.0778 34.0185 77.8147 34.3261 79.5C34.8974 79.5238 35.4727 79.5397 36.048 79.5397C36.5594 79.5397 37.0667 79.5278 37.5701 79.5079C37.2226 77.8266 37.0388 76.0857 37.0388 74.3052C37.0388 69.154 38.5729 64.3518 41.1977 60.3149H41.2057Z" fill="#272A44"/>
<path d="M40.7637 74.3058C40.7637 75.9872 40.9594 77.621 41.319 79.1953C42.3857 79.0565 43.4364 78.8741 44.4711 78.652C44.1395 77.2562 43.9598 75.8008 43.9598 74.3058C43.9598 63.829 52.5453 55.3072 63.1004 55.3072H72.7926C73.232 54.2722 73.6236 53.2134 73.9751 52.1348H63.1004C50.7834 52.1348 40.7637 62.0802 40.7637 74.3058Z" fill="#272A44"/>
<path d="M47.6773 74.3069C47.6773 75.4767 47.8132 76.6148 48.0649 77.7092C49.0956 77.388 50.1064 77.0232 51.0972 76.6187C50.9493 75.8693 50.8734 75.096 50.8734 74.3029C50.8734 67.6091 56.3587 62.1685 63.1025 62.1685H69.0432C69.7424 61.1454 70.3936 60.0866 70.9969 58.9961H63.0985C54.5929 58.9961 47.6733 65.8643 47.6733 74.3029L47.6773 74.3069Z" fill="#272A44"/>
<path d="M57.1284 38.9083C59.074 38.5871 61.0676 38.4166 63.1011 38.4166C61.0317 38.4166 59.0061 38.2183 57.0405 37.8535C57.0765 38.1866 57.1084 38.5197 57.1244 38.8608C57.1244 38.8766 57.1244 38.8925 57.1244 38.9123L57.1284 38.9083Z" fill="#272A44"/>
<path d="M29.9201 19.9589C30.759 19.7051 31.622 19.5029 32.5049 19.3561C32.7087 19.3204 32.9124 19.2927 33.1162 19.2649C31.2065 15.1289 30.1358 10.5369 30.1358 5.69501C30.1358 4.04537 30.2636 2.42745 30.4993 0.845215C29.3807 0.999869 28.2781 1.19814 27.1954 1.444C27.0276 2.83986 26.9397 4.25554 26.9397 5.69501C26.9397 10.7589 28.0064 15.585 29.9201 19.9589Z" fill="#272A44"/>
<path d="M57.1272 38.9039C57.1472 39.2647 57.1592 39.6296 57.1592 39.9984C57.1592 40.1134 57.1512 40.2284 57.1512 40.3394C57.1472 40.5892 57.1432 40.843 57.1312 41.0889C59.0768 41.4101 61.0704 41.5806 63.1039 41.5806H75.8603C75.8803 41.0532 75.8963 40.5258 75.8963 39.9944C75.8963 39.463 75.8843 38.9356 75.8603 38.4082H63.1039C61.0704 38.4082 59.0728 38.5787 57.1312 38.8999L57.1272 38.9039Z" fill="#272A44"/>
<path d="M54.6763 30.1562C55.2436 31.2111 55.723 32.3174 56.1065 33.4714C56.1545 33.6142 56.1944 33.7648 56.2384 33.9116C58.4397 34.439 60.7369 34.7245 63.098 34.7245H75.5348C75.391 33.6538 75.2032 32.595 74.9755 31.5521H63.102C60.1536 31.5521 57.325 31.0564 54.6803 30.1562H54.6763Z" fill="#272A44"/>
<path d="M37.1664 19.0928C38.5527 19.1642 39.907 19.3625 41.2094 19.6837C38.5806 15.6468 37.0505 10.8446 37.0505 5.69344C37.0505 3.91293 37.2343 2.17208 37.5819 0.490708C37.0745 0.470881 36.5671 0.458984 36.0597 0.458984C35.4804 0.458984 34.9091 0.474846 34.3378 0.498639C34.0302 2.18397 33.8584 3.92086 33.8584 5.69344C33.8584 10.5234 35.0609 15.0798 37.1744 19.0928H37.1664Z" fill="#272A44"/>
<path d="M63.1004 27.8618H73.9751C73.6236 26.7832 73.232 25.7244 72.7926 24.6894H63.1004C52.5453 24.6894 43.9598 16.1676 43.9598 5.69072C43.9598 4.19573 44.1395 2.7404 44.4711 1.34454C43.4324 1.12247 42.3817 0.940062 41.319 0.80127C40.9594 2.37557 40.7637 4.00935 40.7637 5.69072C40.7637 17.9163 50.7834 27.8618 63.1004 27.8618Z" fill="#272A44"/>
<path d="M63.0996 21.0022H70.998C70.3947 19.9117 69.7435 18.8529 69.0444 17.8298H63.1036C56.3599 17.8298 50.8746 12.3852 50.8746 5.69542C50.8746 4.90232 50.9545 4.12905 51.0983 3.37957C50.1075 2.97906 49.0967 2.61423 48.066 2.28906C47.8143 3.38354 47.6785 4.52163 47.6785 5.69145C47.6785 14.134 54.598 20.9983 63.1036 20.9983L63.0996 21.0022Z" fill="#272A44"/>
<path d="M94.3728 35.1256C91.4874 33.5129 89.2289 31.2794 87.5985 28.4262C85.967 25.573 85.1523 22.3475 85.1523 18.7474C85.1523 15.1473 85.967 11.9718 87.5985 9.11967C89.2289 6.26651 91.4874 4.03406 94.3728 2.42023C97.2573 0.807438 100.51 0 104.13 0C107.751 0 110.949 0.807438 113.834 2.42023C116.718 4.03406 118.977 6.25817 120.608 9.09359C122.239 11.9301 123.055 15.1483 123.055 18.7474C123.055 22.3464 122.239 25.5741 120.608 28.4262C118.977 31.2794 116.72 33.5129 113.834 35.1256C110.949 36.7395 107.714 37.5459 104.13 37.5459C100.546 37.5459 97.2573 36.7395 94.3728 35.1256ZM111.496 31.8396C113.682 30.5491 115.393 28.7579 116.63 26.465C117.867 24.1731 118.485 21.5995 118.485 18.7474C118.485 15.8953 117.867 13.3311 116.63 11.0548C115.394 8.77959 113.682 6.99675 111.496 5.70631C109.31 4.41587 106.836 3.77013 104.077 3.77013C101.317 3.77013 98.8971 4.41587 96.711 5.70631C94.5249 6.9978 92.8137 8.78063 91.5765 11.0548C90.3403 13.33 89.7217 15.8942 89.7217 18.7474C89.7217 21.6005 90.3403 24.1731 91.5765 26.465C92.8127 28.7569 94.5238 30.5491 96.711 31.8396C98.8971 33.131 101.352 33.7757 104.077 33.7757C106.802 33.7757 109.31 33.131 111.496 31.8396Z" fill="#272A44"/>
<path d="M139.382 13.8543C137.914 13.8543 136.574 14.3561 135.363 15.3576C134.151 16.3601 133.195 17.8456 132.495 19.8152C131.795 21.7847 131.446 24.1799 131.446 26.9986V37.1365H127.503V10.6955H131.446V16.1462C132.094 14.4479 133.212 13.0479 134.8 11.9432C136.387 10.8395 138.068 10.2876 139.843 10.2876C140.901 10.2876 141.669 10.3564 142.147 10.491V14.21C141.328 13.9732 140.406 13.8533 139.382 13.8533V13.8543Z" fill="#272A44"/>
<path d="M153.41 36.246C151.772 35.3802 150.662 34.3359 150.082 33.1133V37.138H146.14V0H150.082V14.7227C150.901 13.4323 152.13 12.3713 153.769 11.5389C155.408 10.7074 157.097 10.2912 158.837 10.2912C161.466 10.2912 163.728 10.8858 165.621 12.074C167.516 13.2633 168.966 14.8844 169.974 16.9395C170.98 18.9946 171.484 21.3126 171.484 23.8935C171.484 26.4744 170.99 28.8018 170 30.8725C169.009 32.9443 167.559 34.5748 165.647 35.763C163.735 36.9523 161.466 37.5459 158.837 37.5459C156.858 37.5459 155.048 37.1129 153.41 36.2471V36.246ZM163.165 32.7816C164.513 31.9501 165.553 30.7609 166.288 29.2159C167.022 27.6709 167.389 25.8964 167.389 23.8925C167.389 20.8703 166.587 18.4334 164.983 16.5817C163.377 14.7311 161.227 13.8057 158.531 13.8057C156.791 13.8057 155.245 14.222 153.898 15.0534C152.55 15.8859 151.517 17.0657 150.801 18.594C150.084 20.1223 149.726 21.8885 149.726 23.8925C149.726 25.8964 150.085 27.7127 150.801 29.242C151.518 30.7703 152.55 31.9512 153.898 32.7826C155.246 33.6151 156.791 34.0303 158.531 34.0303C160.272 34.0303 161.816 33.6151 163.165 32.7826V32.7816Z" fill="#272A44"/>
<path d="M181.06 0V5.34849H176.401V0H181.06ZM176.708 10.698H180.65V37.1369H176.708V10.698Z" fill="#272A44"/>
<path d="M200.312 14.1115H193.4V29.7512C193.4 31.1772 193.749 32.2392 194.45 32.935C195.149 33.6319 196.131 33.9792 197.394 33.9792C198.316 33.9792 199.289 33.8436 200.312 33.5714V37.137C199.219 37.4082 198.178 37.5449 197.188 37.5449C194.764 37.5449 192.879 36.9086 191.531 35.6348C190.181 34.3611 189.508 32.451 189.508 29.9035V14.1115H184.439V10.6981H189.508V2.59766H193.399V10.6981H200.311V14.1115H200.312Z" fill="#272A44"/>
<path d="M207.428 36.5992C206.061 35.9712 205.004 35.096 204.253 33.9756C203.502 32.8552 203.127 31.5481 203.127 30.0531C203.127 27.8457 203.894 26.0462 205.43 24.6535C206.966 23.2619 209.168 22.3783 212.035 22.0048L218.383 21.1901C219.27 21.0545 219.928 20.7916 220.355 20.4004C220.781 20.0102 220.995 19.4584 220.995 18.7448C220.995 17.251 220.398 16.0367 219.203 15.102C218.008 14.1683 216.387 13.701 214.339 13.701C212.292 13.701 210.763 14.1589 209.552 15.0759C208.34 15.9929 207.666 17.301 207.529 18.9983H203.484C203.689 17.2332 204.26 15.6956 205.2 14.3884C206.138 13.0813 207.392 12.0704 208.963 11.3569C210.532 10.6433 212.324 10.2876 214.338 10.2876C216.352 10.2876 218.263 10.6621 219.868 11.408C221.472 12.156 222.718 13.2002 223.606 14.5407C224.493 15.8823 224.938 17.4022 224.938 19.1006V31.8871C224.938 32.6685 225.099 33.2036 225.424 33.4915C225.748 33.7805 226.218 33.9245 226.832 33.9245C227.105 33.9245 227.377 33.8911 227.651 33.8222V37.1334C227.002 37.3024 226.422 37.3879 225.911 37.3879C224.477 37.3879 223.342 36.9977 222.506 36.2164C221.669 35.435 221.234 34.2301 221.201 32.5996C220.484 34.0945 219.298 35.2921 217.642 36.1913C215.987 37.0916 214.135 37.5412 212.087 37.5412C210.347 37.5412 208.793 37.2272 207.428 36.5992ZM218.794 31.7849C220.296 30.1888 221.048 27.9813 221.048 25.1626V23.8377L212.549 25.1626C210.773 25.4349 209.433 25.9701 208.53 26.7671C207.625 27.5651 207.173 28.6438 207.173 30.002C207.173 31.3603 207.667 32.3117 208.658 33.0586C209.647 33.8055 210.944 34.179 212.549 34.179C215.211 34.179 217.293 33.381 218.795 31.7849H218.794Z" fill="#272A44"/>
<path d="M231.953 0H235.895V37.1369H231.953V0Z" fill="#272A44"/>
<path d="M86.6958 42.8594H91.4015L102.397 69.7573C103.236 71.7947 103.857 73.5952 104.261 75.1569C104.665 73.5952 105.287 71.7947 106.124 69.7573L117.121 42.8594H121.687V79.5895H117.867V55.3914C117.867 53.1495 117.928 51.1977 118.053 49.5327C117.525 51.0955 116.842 52.895 116.003 54.9323L105.939 79.5884H102.491L92.3808 54.9323C91.542 52.895 90.8583 51.0944 90.3309 49.5327C90.4547 51.1633 90.5176 53.1161 90.5176 55.3914V79.5895H86.6958V42.8594Z" fill="#272A44"/>
<path d="M131.267 79.0528C129.902 78.4248 128.843 77.5496 128.092 76.4292C127.34 75.3088 126.966 74.0017 126.966 72.5068C126.966 70.2993 127.734 68.4998 129.27 67.1071C130.806 65.7155 133.008 64.8319 135.876 64.4585L142.225 63.6437C143.112 63.5081 143.769 63.2452 144.196 62.854C144.623 62.4639 144.835 61.912 144.835 61.1984C144.835 59.7046 144.238 58.4903 143.044 57.5556C141.848 56.6219 140.227 56.1546 138.18 56.1546C136.132 56.1546 134.603 56.6125 133.392 57.5295C132.18 58.4465 131.506 59.7547 131.37 61.4519H127.324C127.529 59.6869 128.1 58.1492 129.04 56.842C129.978 55.5349 131.232 54.524 132.803 53.8105C134.372 53.0969 136.164 52.7412 138.18 52.7412C140.195 52.7412 142.104 53.1157 143.709 53.8616C145.314 54.6096 146.559 55.6538 147.447 56.9943C148.334 58.3359 148.779 59.8558 148.779 61.5542V74.3407C148.779 75.1221 148.94 75.6572 149.265 75.9452C149.589 76.2341 150.059 76.3781 150.673 76.3781C150.946 76.3781 151.219 76.3447 151.492 76.2758V79.587C150.843 79.756 150.263 79.8415 149.752 79.8415C148.319 79.8415 147.183 79.4514 146.347 78.67C145.511 77.8886 145.075 76.6837 145.042 75.0532C144.325 76.5481 143.139 77.7457 141.483 78.645C139.828 79.5452 137.976 79.9949 135.928 79.9949C134.188 79.9949 132.634 79.6809 131.269 79.0528H131.267ZM142.634 74.2385C144.135 72.6424 144.887 70.435 144.887 67.6162V66.2914L136.388 67.6162C134.613 67.8885 133.273 68.4237 132.369 69.2207C131.464 70.0187 131.012 71.0974 131.012 72.4556C131.012 73.8139 131.507 74.7653 132.497 75.5122C133.486 76.2592 134.783 76.6326 136.388 76.6326C139.05 76.6326 141.132 75.8346 142.635 74.2385H142.634Z" fill="#272A44"/>
<path d="M167.979 56.5631H161.066V72.2028C161.066 73.6289 161.416 74.6908 162.116 75.3867C162.815 76.0835 163.797 76.4309 165.06 76.4309C165.982 76.4309 166.955 76.2953 167.979 76.023V79.5887C166.887 79.8599 165.845 79.9966 164.856 79.9966C162.432 79.9966 160.546 79.3602 159.198 78.0865C157.85 76.8127 157.175 74.9026 157.175 72.3551V56.5631H152.107V53.1498H157.175V45.0493H161.066V53.1498H167.979V56.5631Z" fill="#272A44"/>
<path d="M176.478 73.7829C178.082 75.6168 180.216 76.5338 182.878 76.5338C184.892 76.5338 186.616 76.0581 188.049 75.1077C189.483 74.1574 190.354 72.8659 190.661 71.2364H194.45C194.109 73.1048 193.401 74.6926 192.325 75.9997C191.249 77.3079 189.892 78.301 188.255 78.9801C186.616 79.6592 184.824 79.9993 182.878 79.9993C180.318 79.9993 178.073 79.4057 176.145 78.2165C174.215 77.0283 172.722 75.3978 171.664 73.326C170.605 71.2552 170.077 68.9278 170.077 66.3469C170.077 63.7661 170.597 61.4481 171.638 59.393C172.679 57.3389 174.155 55.7167 176.067 54.5275C177.978 53.3393 180.214 52.7446 182.774 52.7446C185.163 52.7446 187.262 53.2798 189.072 54.3491C190.88 55.4184 192.272 56.8966 193.245 58.7806C194.218 60.6657 194.686 62.7625 194.653 65.0721C194.653 65.5812 194.618 66.1758 194.55 66.855H172.328V63.5439H190.453C190.351 62.1178 189.984 60.844 189.353 59.7236C188.72 58.6032 187.842 57.7197 186.716 57.075C185.589 56.4303 184.275 56.1069 182.773 56.1069C180.963 56.1069 179.411 56.5314 178.114 57.3806C176.816 58.2298 175.817 59.418 175.118 60.9463C174.418 62.4746 174.069 64.2574 174.069 66.2948C174.069 69.4536 174.871 71.95 176.475 73.7839L176.478 73.7829Z" fill="#272A44"/>
<path d="M211.807 56.3093C210.339 56.3093 208.999 56.811 207.788 57.8125C206.576 58.815 205.62 60.3005 204.92 62.2701C204.22 64.2397 203.871 66.6349 203.871 69.4536V79.5914H199.928V53.1525H203.871V58.6033C204.519 56.9049 205.638 55.5049 207.224 54.4002C208.811 53.2965 210.492 52.7446 212.267 52.7446C213.325 52.7446 214.093 52.8135 214.571 52.9481V56.6671C213.752 56.4303 212.83 56.3103 211.806 56.3103L211.807 56.3093Z" fill="#272A44"/>
<path d="M222.918 42.4521V47.8006H218.258V42.4521H222.918ZM218.566 53.1502H222.508V79.5891H218.566V53.1502Z" fill="#272A44"/>
<path d="M231.98 79.0528C230.615 78.4248 229.556 77.5496 228.806 76.4292C228.054 75.3088 227.679 74.0017 227.679 72.5068C227.679 70.2993 228.448 68.4998 229.983 67.1071C231.519 65.7155 233.721 64.8319 236.589 64.4585L242.937 63.6437C243.824 63.5081 244.482 63.2452 244.908 62.854C245.335 62.4639 245.548 61.912 245.548 61.1984C245.548 59.7046 244.95 58.4903 243.756 57.5556C242.561 56.6219 240.94 56.1546 238.892 56.1546C236.844 56.1546 235.316 56.6125 234.105 57.5295C232.893 58.4465 232.218 59.7547 232.082 61.4519H228.037C228.241 59.6869 228.813 58.1492 229.752 56.842C230.691 55.5349 231.945 54.524 233.515 53.8105C235.085 53.0969 236.877 52.7412 238.892 52.7412C240.907 52.7412 242.817 53.1157 244.422 53.8616C246.026 54.6096 247.272 55.6538 248.16 56.9943C249.047 58.3359 249.491 59.8558 249.491 61.5542V74.3407C249.491 75.1221 249.653 75.6572 249.978 75.9452C250.302 76.2341 250.772 76.3781 251.386 76.3781C251.659 76.3781 251.932 76.3447 252.205 76.2758V79.587C251.556 79.756 250.976 79.8415 250.464 79.8415C249.031 79.8415 247.896 79.4514 247.06 78.67C246.223 77.8886 245.788 76.6837 245.755 75.0532C245.037 76.5481 243.852 77.7457 242.196 78.645C240.54 79.5452 238.689 79.9949 236.641 79.9949C234.9 79.9949 233.347 79.6809 231.981 79.0528H231.98ZM243.347 74.2385C244.849 72.6424 245.6 70.435 245.6 67.6162V66.2914L237.101 67.6162C235.326 67.8885 233.986 68.4237 233.082 69.2207C232.178 70.0187 231.726 71.0974 231.726 72.4556C231.726 73.8139 232.22 74.7653 233.21 75.5122C234.2 76.2592 235.497 76.6326 237.101 76.6326C239.763 76.6326 241.846 75.8346 243.348 74.2385H243.347Z" fill="#272A44"/>
<path d="M256.507 42.4521H260.45V79.5891H256.507V42.4521Z" fill="#272A44"/>
<path d="M270.484 78.8233C268.879 78.042 267.617 76.956 266.695 75.5633C265.773 74.1707 265.279 72.6424 265.21 70.9785H269.153C269.256 72.5068 269.929 73.8055 271.175 74.8759C272.421 75.9451 274.034 76.4803 276.014 76.4803C277.755 76.4803 279.171 76.0724 280.264 75.2577C281.356 74.4429 281.903 73.4582 281.903 72.3033C281.903 71.1485 281.552 70.2993 280.853 69.6546C280.153 69.0099 279.138 68.5176 277.807 68.1775L272.995 66.9037C270.98 66.3612 269.376 65.5622 268.182 64.5096C266.987 63.457 266.39 61.912 266.39 59.8736C266.39 58.5153 266.774 57.2927 267.542 56.2057C268.31 55.1187 269.386 54.2695 270.767 53.6582C272.15 53.0469 273.712 52.7412 275.452 52.7412C277.193 52.7412 278.873 53.0646 280.291 53.7093C281.708 54.355 282.877 55.2626 283.798 56.4352C284.72 57.6067 285.283 58.9743 285.488 60.536H281.495C281.324 59.2111 280.693 58.1502 279.6 57.3522C278.508 56.5541 277.125 56.1546 275.453 56.1546C273.917 56.1546 272.697 56.4947 271.792 57.1738C270.887 57.8539 270.435 58.7532 270.435 59.8736C270.435 60.7227 270.751 61.453 271.383 62.0643C272.014 62.6756 272.893 63.1169 274.02 63.3892L278.833 64.6118C281.119 65.1897 282.886 66.0212 284.132 67.1082C285.377 68.1952 286 69.928 286 72.3044C286 73.8327 285.582 75.1742 284.746 76.329C283.909 77.4839 282.74 78.3842 281.239 79.0289C279.736 79.6736 277.996 79.9969 276.016 79.9969C273.934 79.9969 272.091 79.6057 270.486 78.8254L270.484 78.8233Z" fill="#272A44"/>
</svg>
